<svg width="20" height="20" viewBox="0 0 20 20" fill="none" xmlns="http://www.w3.org/2000/svg">
<path d="M19 10C19 14.9706 14.9706 19 10 19C5.02944 19 1 14.9706 1 10C1 5.02944 5.02944 1 10 1C14.9706 1 19 5.02944 19 10Z" stroke="black" stroke-width="2" stroke-linecap="round" stroke-linejoin="round"/>
<path d="M7.09009 7.00008C7.32519 6.33175 7.78924 5.76819 8.40004 5.40921C9.01084 5.05024 9.72898 4.91902 10.4273 5.03879C11.1255 5.15857 11.7589 5.52161 12.2152 6.06361C12.6714 6.60561 12.9211 7.2916 12.9201 8.00008C12.9201 10.0001 9.92009 11.0001 9.92009 11.0001" stroke="black" stroke-width="2" stroke-linecap="round" stroke-linejoin="round"/>
<path d="M10 14V14.5" stroke="black" stroke-width="2" stroke-linecap="round" stroke-linejoin="round"/>
</svg>
