<svg width="144" height="23" fill="none" xmlns="http://www.w3.org/2000/svg"><path d="M57.482 10.59c-.614-.46-.744-.893-.742-1.182.002-.242.163-.44.318-.625.545-.654 1.834-2.387 1.834-4.17 0-3.797-7.05-4.605-7.548-4.605-.498 0-5.64-.242-7.465 1.939-1.833 2.096-2.594 10.829-2.651 11.51l-.006.09c-.128 2.885.757 4.094 1.555 4.6.498.315 1.064 1.114 1.517 1.492.497.485 2.654 1.13 4.728 1.13 2.073 0 5.723-.241 6.967-.807 1.244-.646 3.816-1.858 4.23-4.524.415-2.666-1.742-4.04-2.737-4.847zm-7.05-6.704c1.576-.808 2.57-.647 3.069 0 .497.646 1.99 2.18-.664 3.635-2.062 1.13-3.774 2.064-4.63 1.706-.52-.219-.428-.942-.23-1.47.436-1.168 1.342-3.244 2.455-3.871zm.331 11.875c-1.269.337-2.257.206-2.741.094a.74.74 0 0 1-.484-.398.9.9 0 0 1-.099-.384l-.019-.63c-.032-1.069.805-2.059 1.85-1.832.747.242 2.82-.081 3.733.08.83.243 1.493.485 1.493 1.131 0 .566-1.908 1.454-3.733 1.94zM21.336 9.815c-.068.14-.125.285-.167.434-.376 1.316-.603 2.78-.681 4.462-.203 4.8 1.739 5.48 2.467 5.566.18.02.362.017.541.023 1.99.072 2.256-.776 3.13-1.55.995-.888 1.576-1.858 1.244-2.423-.498-.808-.249-1.212.249-1.455.198-.115 1.593-.231 2.994-.32 1.679-.108 3.063 1.271 3.757 2.803.403.89 1.039 1.765 2.041 2.284.996.485 2.323 1.05 3.733 0 1.41-1.05.912-3.15.663-4.928-.331-1.777-1.078-3.232-1.078-7.432 0-5.009-4.313-7.029-6.304-6.867-1.244.08-3.484-.727-6.884 1.939-1.908 1.535-3.484 3.07-4.562 5.09l-1.143 2.374zm14.248-3.748c-.138.268-.555 2.095-.9 3.674-.303 1.388-1.53 2.376-2.948 2.452-.86.046-1.748.124-2.29.256-1.242.285-2.22-.818-2.016-2.077l.078-.483a2.05 2.05 0 0 1 .091-.363c.35-.98 2.199-5.721 5.248-5.721 3.4 0 2.986 1.777 2.737 2.262zM73.324.654c-.497-.484-1.41-.484-1.907.485-.498 1.05-.083 3.716-.83 4.766-.746 1.05-2.322 2.343-2.986 2.343-.663 0-.497.646-2.156.889-1.576.323-1.41-1.454-1.078-2.181.331-.728.497-1.859.331-4.201C64.498.873 62.48.503 61.693.43c-.208-.02-.418-.046-.625-.021-.563.068-1.721.56-2.093 3.396-.618 4.366 1.14 7.049 1.383 7.394a.847.847 0 0 0 .058.076c.922 1.091 2.713 1.021 3.287 1.82.498.808-.415 4.524 0 5.736.415 1.212 1.99 1.858 2.654 1.939 1.162.08 1.41-1.454 1.908-2.585.747-1.616.995-5.251 1.493-5.736.498-.485 1.41-.242 3.733-2.262 2.185-1.9 2.901-4.515 3.048-5.76a1.047 1.047 0 0 0-.022-.433c-.356-1.147-2.725-2.885-3.192-3.34z" fill="url(#paint0_linear)"/><path d="M19.658 10.348c-.663-.646-3.815-1.454-2.405-2.02 1.742-.726 2.405-2.18 2.405-3.069 0-.727-3.4-3.716-3.898-4.362C15.262.25 12.027.17 11.28.17c-.746 0-6.137-.162-8.626 3.877C.358 7.654.046 14.74.006 16.215c-.005.185.007.367.052.547.515 2.095 2.384 2.402 3.26 2.634.158.043.334.07.516.087.966.088 1.647.935 2.138 1.771.332.566.996 1.05 1.742.647.747-.404 1.576-.97 3.567-1.454 1.327-.323 5.142.242 8.129-3.07 2.82-3.312.912-6.463.248-7.028zm-5.889 4.605c-.877.57-1.866.968-2.78 1.246-1.65.5-3.132-.838-3.107-2.56.023-1.575.086-3.32.247-4.18.332-1.776 2.737-4.685 4.147-5.654 1.41-.97 1.99-.162 1.99.161 0 .324.747 2.262-1.41 3.636C10.7 8.975 9.623 8.814 9.623 9.54c0 .727 1.078 1.777 2.737 1.777s2.405-.485 2.654 0c.166.323-.083 2.827-1.244 3.635z" fill="url(#paint1_linear)"/><path d="M139.747 11.156c-1.162-.161-4.977.808-4.811 1.374a.882.882 0 0 0 .075.174c.535.97 1.168 2.105.246 2.719-.457.304-1.116.528-2.063.5-2.737-.081-2.737-3.959-1.742-6.14.995-2.262 3.069-2.1 4.147-2.181 1.161-.081 1.161.485 1.825.97.664.484 1.41-.485 2.406-.728.995-.242 1.493-.808 1.658-1.616.166-.807-1.658-4.281-5.474-4.685-3.745-.388-6.342 1.088-6.541 1.204l-.025.016c-2.064 1.295-2.974 3.794-3.305 6.374 0-.808-.083-1.697-.249-2.666-.58-3.716-3.649-5.574-6.469-5.655-1.565-.046-3.022.304-3.983.612-.757.243-1.586.263-2.381.24-1.3-.039-3.358.416-4.74 3.246a.76.76 0 0 1-.022.042c-.171.323-2.315 4.493-1.233 8.641.069.264-.806.952-1.079.952-.746 0-1.493 1.858-3.815 1.535-2.323-.323-.83-6.22-.415-7.755.415-1.535 2.24-4.686 2.323-5.17.082-.485-1.825-2.02-3.65-2.182-.69-.042-1.557.09-2.232.228a2.407 2.407 0 0 0-1.646 1.22c-.817 1.512-2.288 4.676-2.758 8.57-.04.269-.676.4-.843.187a2.72 2.72 0 0 0-.235-.268c-.664-.646-3.816-1.454-2.406-2.02 1.742-.727 2.406-2.18 2.406-3.07 0-.727-3.401-3.716-3.899-4.362-.497-.646-3.732-.727-4.479-.727-.746 0-6.138-.08-8.71 3.878-2.295 3.607-2.607 10.691-2.648 12.167-.005.185.008.367.052.547.516 2.095 2.385 2.402 3.26 2.635.159.042.334.07.517.086.966.088 1.647.935 2.138 1.772.331.566.995 1.05 1.659.646.746-.404 1.576-.97 3.566-1.454 1.328-.323 5.143.242 8.13-3.07.373-.39 2.99-.436 3.346-.03 1.216 1.39 2.938 2.312 5.031 2.454 4.728.404 7.216-2.424 7.714-2.747.065-.042.597-.09.651-.035.207.212.427.406.676.6 2.074 1.697 3.401 2.424 5.143 2.505 2.633.135 5.036-1.027 5.754-1.413.147-.08.294-.151.443-.226.895-.448 4.179-2.44 4.752-7.732 0 1.535.248 2.908.58 3.878.996 2.908 5.641 5.978 8.461 5.978 2.82 0 4.479-2.747 4.894-2.99.414-.242.497.405 1.161.485.663.081.663-.404.663-1.696 0-1.19 1.194-2.857 1.385-4.06.032-.2.069-.406.032-.606-.17-.924-2.186-1.004-3.241-1.15zm-52.838 4.04c-.876.569-1.866.968-2.78 1.245-1.65.501-3.131-.837-3.106-2.56.022-1.575.086-3.32.246-4.179.332-1.777 2.737-4.685 4.147-5.655 1.41-.97 1.991-.161 1.991.162s.747 2.262-1.41 3.635c-2.156 1.374-3.235 1.212-3.235 1.939 0 .727 1.079 1.777 2.737 1.777 1.66 0 2.406-.484 2.655 0 .166.404-.083 2.909-1.245 3.636zm33.262-3.151c-.332 1.616-3.401 4.04-5.889 3.958-2.571-.08-2.488-1.454-2.488-2.665 0-1.212.414-4.928 1.741-6.06 1.35-1.15 3.944-2.696 5.387-1.665.212.151.41.327.586.535 1.078 1.373.995 4.281.663 5.897z" fill="url(#paint2_linear)"/><defs><linearGradient id="paint0_linear" y1="10.965" x2="149" y2="10.965" gradientUnits="userSpaceOnUse"><stop stop-color="#F03E89"/><stop offset=".309" stop-color="#F12091"/><stop offset=".644" stop-color="#3EB0F0"/><stop offset="1" stop-color="#1F6AFD"/></linearGradient><linearGradient id="paint1_linear" y1="10.965" x2="149" y2="10.965" gradientUnits="userSpaceOnUse"><stop stop-color="#F03E89"/><stop offset=".309" stop-color="#F12091"/><stop offset=".644" stop-color="#3EB0F0"/><stop offset="1" stop-color="#1F6AFD"/></linearGradient><linearGradient id="paint2_linear" y1="10.965" x2="149" y2="10.965" gradientUnits="userSpaceOnUse"><stop stop-color="#F03E89"/><stop offset=".309" stop-color="#F12091"/><stop offset=".644" stop-color="#3EB0F0"/><stop offset="1" stop-color="#1F6AFD"/></linearGradient></defs></svg>