<svg width="147" height="90" viewBox="0 0 147 90" fill="none" xmlns="http://www.w3.org/2000/svg">
<path d="M98.6244 47.5341C98.3642 47.1872 98.0172 46.9269 97.5835 46.7535C97.1498 46.58 96.6293 46.4932 95.9788 46.4932C94.9728 46.4932 94.1572 47.3088 94.1572 48.3148V51.5242C94.1572 52.7937 95.1864 53.8228 96.4559 53.8228C96.8462 53.8228 97.1932 53.7795 97.5401 53.6494C97.8871 53.5192 98.1907 53.3458 98.4943 53.0422C98.7545 52.782 98.9714 52.3916 99.1448 51.9579C99.3183 51.5242 99.4051 50.9604 99.4051 50.3098C99.4051 49.746 99.3617 49.1822 99.2316 48.7051C99.1015 48.2714 98.8846 47.8811 98.6244 47.5341Z" fill="#1FBEB9"/>
<path d="M125.471 44.8017C125.471 50.7435 130.285 55.5576 136.227 55.5576C142.169 55.5576 146.983 50.7435 146.983 44.8017C146.983 38.86 142.169 34.0459 136.227 34.0459C134.665 34.0459 133.191 34.3928 131.89 34.9566C131.586 35.0867 131.239 35.1735 130.849 35.1301C129.461 35.0867 128.377 33.9591 128.42 32.5713C128.42 32.0942 128.55 31.7038 128.767 31.3135C130.068 29.2317 130.849 26.7596 130.849 24.114C130.849 16.6976 124.82 10.6691 117.404 10.6691C109.988 10.6691 103.959 16.6976 103.959 24.114C103.959 26.803 104.74 29.3185 106.128 31.4436C106.388 31.8773 106.561 32.3978 106.561 32.9616C106.518 34.4796 105.26 35.6939 103.742 35.6939C103.309 35.6939 102.918 35.6072 102.571 35.4337C100.533 34.5229 98.2776 34.0025 95.8922 34.0025C93.3333 34.0025 90.948 34.6097 88.8228 35.6506C88.3457 35.8674 87.8687 35.9975 87.3048 35.9975C85.3532 35.9975 83.7918 34.3928 83.7918 32.4845C83.7918 31.8773 83.9653 31.3135 84.2255 30.7931C85.9604 27.8005 86.9145 24.2875 86.9145 20.601C86.9145 9.23792 77.6766 0 66.3135 0C54.9071 0 45.7125 9.23792 45.7125 20.601C45.7125 24.0273 46.5366 27.2367 48.0112 30.0558C48.3148 30.663 48.4882 31.3135 48.575 32.0074C48.8352 34.9566 46.6233 37.5589 43.6741 37.8191C42.5898 37.9058 41.549 37.689 40.6815 37.2119C36.8649 35.2169 32.4845 34.0892 27.8439 34.0892C12.4473 34.0459 0 46.4932 0 61.8464C0 77.1995 12.4473 89.6035 27.8005 89.6035C43.1537 89.6035 55.5576 77.1562 55.5576 61.8464C55.5576 56.5118 54.083 51.5675 51.4808 47.3172C51.0471 46.6233 50.7869 45.886 50.7001 45.0186C50.3965 42.0694 52.5651 39.4238 55.5143 39.1202C56.4684 39.0335 57.3358 39.1636 58.1599 39.5105C60.6754 40.5948 63.4077 41.202 66.3135 41.202C70.0434 41.202 73.513 40.2045 76.5056 38.513C77.026 38.2528 77.5898 38.0793 78.197 38.0793C80.1487 38.0793 81.71 39.6407 81.71 41.5923C81.71 42.1561 81.5799 42.6332 81.3631 43.1103C80.3222 45.2354 79.7584 47.6208 79.7584 50.1797C79.7584 59.0706 86.9579 66.3135 95.8922 66.3135C104.783 66.3135 112.026 59.114 112.026 50.1797C112.026 46.6667 110.898 43.4139 108.99 40.7683C108.687 40.2912 108.513 39.7708 108.513 39.1636C108.513 37.6456 109.771 36.3879 111.332 36.4312C111.679 36.4312 112.026 36.518 112.33 36.6047C113.891 37.2553 115.582 37.6022 117.404 37.6022C119.659 37.6022 121.741 37.0384 123.606 36.0843C123.953 35.9108 124.343 35.824 124.734 35.8674C126.121 35.9108 127.162 37.0818 127.119 38.4696C127.119 38.86 127.032 39.1636 126.859 39.5105C125.948 41.0719 125.471 42.8934 125.471 44.8017ZM133.061 41.0285C133.899 41.0285 134.579 41.7081 134.579 42.5465V45.9882C134.579 46.0036 134.591 46.0161 134.607 46.0161C134.616 46.0161 134.625 46.0112 134.63 46.003L137.441 41.5132C137.63 41.2117 137.961 41.0285 138.317 41.0285C138.887 41.0285 139.349 41.4909 139.349 42.0613V47.6859C139.349 48.1051 139.01 48.4449 138.59 48.4449C138.171 48.4449 137.831 48.1051 137.831 47.6859V47.3422C137.831 46.2312 136.374 45.8176 135.791 46.7629L135.062 47.9427C134.87 48.2548 134.529 48.4449 134.162 48.4449C133.578 48.4449 133.104 47.9712 133.104 47.3869V41.0719C133.104 41.0479 133.085 41.0285 133.061 41.0285ZM37.7323 69.6097C37.7323 70.6636 36.878 71.518 35.824 71.518C34.7701 71.518 33.9157 70.6636 33.9157 69.6097V58.2753C33.9157 58.2594 33.9029 58.2466 33.8871 58.2466C33.8778 58.2466 33.8692 58.251 33.8638 58.2585L31.8307 61.0903C29.8448 63.8564 25.7352 63.8715 23.7291 61.1202L21.7372 58.3885C21.7318 58.3811 21.7232 58.3767 21.714 58.3767C21.6981 58.3767 21.6853 58.3896 21.6853 58.4055V69.6097C21.6853 70.6636 20.8309 71.518 19.777 71.518C18.723 71.518 17.8687 70.6636 17.8687 69.6097V55.7637C17.8687 54.1648 19.1648 52.8687 20.7637 52.8687C21.7203 52.8687 22.6151 53.3412 23.1545 54.1312L23.7521 55.0065C25.6984 57.8569 29.9026 57.8569 31.8488 55.0065L32.4465 54.1312C32.9859 53.3412 33.8807 52.8687 34.8373 52.8687C36.4362 52.8687 37.7323 54.1648 37.7323 55.7637V69.6097ZM71.8216 26.1307C71.8216 26.8613 71.2293 27.4535 70.4988 27.4535H65.9356C63.1741 27.4535 60.9356 25.215 60.9356 22.4535V18.1413C60.9356 15.3798 63.1741 13.1413 65.9356 13.1413H70.3253C71.0558 13.1413 71.6481 13.7335 71.6481 14.4641C71.6481 15.1946 71.0558 15.7869 70.3253 15.7869H65.6413C64.7909 15.7869 64.1016 16.4762 64.1016 17.3265C64.1016 18.1768 64.7909 18.8662 65.6413 18.8662H69.8265C70.4972 18.8662 71.0409 19.4099 71.0409 20.0805C71.0409 20.7512 70.4972 21.2949 69.8265 21.2949H65.8581C64.888 21.2949 64.1016 22.0813 64.1016 23.0514C64.1016 24.0215 64.888 24.8079 65.8581 24.8079H70.4988C71.2293 24.8079 71.8216 25.4002 71.8216 26.1307ZM101.617 52.4783C101.4 53.2156 101.053 53.8228 100.62 54.3433C100.186 54.8637 99.6221 55.254 98.9715 55.5576C98.321 55.8612 97.5403 55.9913 96.6295 55.9913C93.8681 55.9913 91.5985 53.7528 91.5985 50.9913V49.3247C91.5985 46.5632 93.8681 44.3247 96.6295 44.3247C97.3668 44.3247 98.0607 44.4548 98.7113 44.6716C99.3618 44.8885 99.9257 45.2788 100.403 45.7559C100.88 46.233 101.227 46.8402 101.53 47.5341C101.791 48.2714 101.921 49.0954 101.921 50.0496C101.921 50.9604 101.834 51.741 101.617 52.4783ZM121.264 26.803C121.047 27.2367 120.787 27.627 120.44 27.974C120.093 28.2776 119.703 28.5378 119.226 28.7113C118.748 28.8848 118.271 28.9715 117.708 28.9715C117.014 28.9715 116.406 28.8414 115.843 28.6245C115.279 28.3643 114.845 28.0607 114.455 27.627C114.064 27.1933 113.804 26.7162 113.587 26.1524C113.371 25.5886 113.284 24.9814 113.284 24.3309C113.284 23.6803 113.371 23.0297 113.587 22.4659C113.804 21.9021 114.064 21.3817 114.455 20.948C114.845 20.5143 115.279 20.1673 115.843 19.9504C116.406 19.6902 117.014 19.6035 117.708 19.6035C118.185 19.6035 118.662 19.6902 119.139 19.8203C119.573 19.9504 119.963 20.1673 120.31 20.4709C120.657 20.7311 120.96 21.0781 121.177 21.4684C121.236 21.575 121.292 21.6881 121.343 21.8067C121.575 22.3447 121.109 22.8563 120.523 22.8563H120.285C119.946 22.8563 119.657 22.6078 119.512 22.3019C119.493 22.2634 119.473 22.2319 119.447 22.1979C119.33 22.0418 119.208 21.8893 119.052 21.772C118.879 21.6419 118.662 21.5118 118.445 21.425C118.228 21.3383 117.968 21.2949 117.751 21.2949C117.317 21.2949 116.927 21.3817 116.623 21.5551C116.32 21.7286 116.059 21.9455 115.886 22.2491C115.713 22.5527 115.539 22.8563 115.452 23.2466C115.366 23.5936 115.322 23.9839 115.322 24.3742C115.322 24.7646 115.366 25.1115 115.452 25.5019C115.502 25.7014 115.566 25.9009 115.653 26.0839C115.779 26.3485 115.946 26.5973 116.155 26.803C116.291 26.9381 116.45 27.0511 116.623 27.1499C116.927 27.3234 117.317 27.4102 117.751 27.4102C118.358 27.4102 118.835 27.2367 119.182 26.8463C119.358 26.6488 119.5 26.4291 119.603 26.1815C119.784 25.7476 120.154 25.3718 120.624 25.3718C121.183 25.3718 121.598 25.8785 121.413 26.4061C121.365 26.5436 121.314 26.6769 121.264 26.803Z" fill="#1FBEB9"/>
<path d="M72.1247 79.9752C71.9331 79.9752 71.7778 79.8199 71.7778 79.6283V79.5478C71.7778 79.0707 71.1146 78.9522 70.9494 79.3998L70.827 79.7311C70.7729 79.8778 70.633 79.9752 70.4767 79.9752C70.3203 79.9752 70.1805 79.8778 70.1263 79.7311L70.0039 79.3998C69.8387 78.9522 69.1755 79.0707 69.1755 79.5478V79.6716C69.1755 79.8393 69.0396 79.9752 68.872 79.9752C68.7043 79.9752 68.5684 79.8393 68.5684 79.6716V76.8875C68.5684 76.6047 68.7976 76.3755 69.0803 76.3755C69.2941 76.3755 69.4853 76.5082 69.56 76.7085L69.6588 76.9733C69.9563 77.7705 71.0838 77.7705 71.3812 76.9733L71.48 76.7085C71.5548 76.5082 71.746 76.3755 71.9597 76.3755C72.2425 76.3755 72.4717 76.6047 72.4717 76.8875V79.6283C72.4717 79.8199 72.3164 79.9752 72.1247 79.9752Z" fill="#1FBEB9"/>
<path d="M74.7705 80.1054C73.7297 80.1054 73.0791 79.4115 73.0791 78.2405C73.0791 77.0695 73.773 76.2888 74.7272 76.2888C75.8982 76.2888 76.3319 77.243 76.3319 78.2405C76.3319 78.2884 76.2931 78.3272 76.2451 78.3272H73.6863C73.6623 78.3272 73.6429 78.3467 73.6429 78.3706C73.6429 79.1513 74.0766 79.585 74.7705 79.585C75.2242 79.585 75.4801 79.4202 75.6532 79.0046C75.7018 78.8879 75.811 78.8043 75.9373 78.8043C76.119 78.8043 76.2572 78.972 76.1955 79.1428C75.9635 79.7846 75.4793 80.1054 74.7705 80.1054ZM74.7272 76.7659C74.4946 76.7659 74.2841 76.8397 74.1141 76.9721C73.6844 77.3067 74.148 77.8502 74.6927 77.8502C75.2621 77.8502 75.7404 77.2546 75.2719 76.9308C75.1181 76.8244 74.9343 76.7659 74.7272 76.7659Z" fill="#1FBEB9"/>
<path d="M-nan -nanL79.759 81.1029V80.5391C79.759 80.2277 79.5066 79.9752 79.1952 79.9752H77.5905C77.2791 79.9752 77.0267 80.2277 77.0267 80.5391V80.821C77.0267 80.9767 76.9005 81.1029 76.7448 81.1029C76.5891 81.1029 76.4629 80.9767 76.4629 80.821V79.7005C76.4629 79.5648 76.5729 79.4548 76.7086 79.4548C76.7979 79.4548 76.881 79.4068 76.9161 79.3248C77.1101 78.8719 77.2869 77.9786 77.2869 77.1562C77.2869 76.725 77.6364 76.3755 78.0676 76.3755H78.5664C79.273 76.3755 79.8458 76.9483 79.8458 77.6549V79.2163C79.8458 79.348 79.9526 79.4548 80.0843 79.4548C80.2161 79.4548 80.3229 79.5616 80.3229 79.6933V80.821C80.3229 80.9767 80.1966 81.1029 80.041 81.1029H79.759L-nan -nanZM79.282 77.6332C79.282 77.25 78.9713 76.9393 78.588 76.9393H78.1977C78.03 76.9393 77.8941 77.0752 77.8941 77.2429C77.8941 77.6383 77.8532 78.0419 77.7892 78.404C77.6997 78.9107 78.0927 79.4982 78.6072 79.4982C78.9799 79.4982 79.282 79.1961 79.282 78.8234V77.6332Z" fill="#1FBEB9"/>
<path d="M81.3065 79.9752C81.0504 79.9752 80.8428 79.7676 80.8428 79.5116V76.6791C80.8428 76.5114 80.9787 76.3755 81.1464 76.3755C81.314 76.3755 81.45 76.5114 81.45 76.6791V76.971C81.45 77.5863 82.2694 77.7975 82.5668 77.2589L82.9224 76.615C83.004 76.4672 83.1595 76.3755 83.3283 76.3755C83.5844 76.3755 83.792 76.5831 83.792 76.8392V79.6716C83.792 79.8393 83.656 79.9752 83.4884 79.9752C83.3207 79.9752 83.1848 79.8393 83.1848 79.6716V79.3797C83.1848 78.7644 82.3654 78.5532 82.0679 79.0918L81.7124 79.7357C81.6307 79.8835 81.4753 79.9752 81.3065 79.9752Z" fill="#1FBEB9"/>
<path d="M87.5656 79.9752H86.503C85.509 79.9752 84.7031 79.1694 84.7031 78.1754V76.6791C84.7031 76.5114 84.839 76.3755 85.0067 76.3755C85.1744 76.3755 85.3103 76.5114 85.3103 76.6791V78.5657C85.3103 79.0567 85.7084 79.4548 86.1994 79.4548C86.6904 79.4548 87.0885 79.0567 87.0885 78.5657V76.6791C87.0885 76.5114 87.2244 76.3755 87.3921 76.3755C87.5598 76.3755 87.6957 76.5114 87.6957 76.6791V79.2163C87.6957 79.348 87.8025 79.4548 87.9342 79.4548C88.066 79.4548 88.1728 79.5616 88.1728 79.6933V80.821C88.1728 80.9767 88.0466 81.1029 87.8909 81.1029C87.7352 81.1029 87.6089 80.9767 87.6089 80.821V80.0186C87.6089 79.9947 87.5895 79.9752 87.5656 79.9752Z" fill="#1FBEB9"/>
<path d="M89.1121 79.9752C88.856 79.9752 88.6484 79.7676 88.6484 79.5116V76.6791C88.6484 76.5114 88.7844 76.3755 88.952 76.3755C89.1197 76.3755 89.2556 76.5114 89.2556 76.6791V76.971C89.2556 77.5863 90.075 77.7975 90.3725 77.2589L90.7281 76.615C90.8097 76.4672 90.9651 76.3755 91.134 76.3755C91.39 76.3755 91.5976 76.5831 91.5976 76.8392V79.6716C91.5976 79.8393 91.4617 79.9752 91.294 79.9752C91.1264 79.9752 90.9904 79.8393 90.9904 79.6716V79.3797C90.9904 78.7644 90.1711 78.5532 89.8736 79.0918L89.518 79.7357C89.4364 79.8835 89.2809 79.9752 89.1121 79.9752Z" fill="#1FBEB9"/>
<path d="M92.8134 79.9752C92.6457 79.9752 92.5098 79.8393 92.5098 79.6716V76.6791C92.5098 76.5114 92.6457 76.3755 92.8134 76.3755C92.981 76.3755 93.117 76.5114 93.117 76.6791V77.0911C93.117 77.4863 93.4373 77.8067 93.8326 77.8067H94.1795C94.5748 77.8067 94.8951 77.4863 94.8951 77.0911V76.6791C94.8951 76.5114 95.0311 76.3755 95.1987 76.3755C95.3664 76.3755 95.5023 76.5114 95.5023 76.6791V79.6716C95.5023 79.8393 95.3664 79.9752 95.1987 79.9752C95.0311 79.9752 94.8951 79.8393 94.8951 79.6716V79.1512C94.8951 78.6961 94.5262 78.3272 94.0711 78.3272H93.941C93.4859 78.3272 93.117 78.6961 93.117 79.1512V79.6716C93.117 79.8393 92.981 79.9752 92.8134 79.9752Z" fill="#1FBEB9"/>
<path d="M99.5419 79.9753C99.5379 79.9753 99.5339 79.976 99.5301 79.9772C99.4019 80.0199 99.2737 80.0621 99.1455 80.0621C98.8502 80.0621 98.2176 79.9212 97.9377 80.0153C97.7562 80.0764 97.5546 80.1054 97.3239 80.1054C96.63 80.1054 96.1963 79.7151 96.1963 79.1079C96.1963 78.4573 96.63 78.1104 97.454 77.9803C98.3214 77.8935 98.5817 77.8935 98.5817 77.4164C98.5817 77.0261 98.2781 76.8093 97.7576 76.8093C97.3013 76.8093 97.0439 76.9513 96.9393 77.2814C96.8931 77.427 96.7727 77.5466 96.62 77.5466C96.4579 77.5466 96.3219 77.4134 96.3557 77.2548C96.4826 76.6586 97.0166 76.3322 97.8444 76.3322C98.3214 76.3322 98.7118 76.4623 98.972 76.6791C99.2322 76.9394 99.2322 77.2863 99.2322 77.5899C99.2322 78.1104 99.1889 78.6308 99.1889 79.1946C99.1889 79.4549 99.2322 79.5416 99.4491 79.5416C99.5209 79.5416 99.5792 79.5999 99.5792 79.6717V79.938C99.5792 79.9586 99.5625 79.9753 99.5419 79.9753ZM97.801 78.3272C97.3673 78.3706 96.8035 78.414 96.8035 79.0212C96.8035 79.3681 97.0637 79.6283 97.4974 79.6283C98.0612 79.6283 98.5817 79.238 98.5817 78.8043C98.5817 78.518 98.2384 78.2713 97.9542 78.3059C97.9021 78.3122 97.8508 78.3189 97.801 78.3272Z" fill="#1FBEB9"/>
<path d="M104.48 79.9426C104.48 79.9529 104.467 79.9572 104.461 79.9489L103.526 78.672C103.344 78.4223 102.981 78.3944 102.763 78.6132C102.668 78.7077 102.615 78.836 102.615 78.9698V79.6716C102.615 79.8393 102.479 79.9752 102.311 79.9752C102.144 79.9752 102.008 79.8393 102.008 79.6716V76.6791C102.008 76.5114 102.144 76.3755 102.311 76.3755C102.479 76.3755 102.615 76.5114 102.615 76.6791V76.8645C102.615 77.3031 103.148 77.5199 103.454 77.2057L104.184 76.4571C104.234 76.4049 104.304 76.3755 104.377 76.3755C104.62 76.3755 104.739 76.6707 104.565 76.8396L103.991 77.3965C103.775 77.6059 103.749 77.9434 103.931 78.1829L104.945 79.5164C105.074 79.6868 104.953 79.9319 104.739 79.9319H104.491C104.485 79.9319 104.48 79.9367 104.48 79.9426Z" fill="#1FBEB9"/>
<path d="M108.903 78.1537C108.903 79.3681 108.253 80.062 107.168 80.062C106.084 80.062 105.434 79.3681 105.434 78.1537C105.434 76.9827 106.128 76.2454 107.168 76.2454C108.209 76.2454 108.903 76.9827 108.903 78.1537ZM106.041 78.1971C106.041 79.0645 106.474 79.585 107.168 79.585C107.862 79.585 108.296 79.0645 108.296 78.1971C108.296 77.3297 107.862 76.8092 107.168 76.8092C106.474 76.8092 106.041 77.3297 106.041 78.1971Z" fill="#1FBEB9"/>
<path d="M113.24 79.9752C113.048 79.9752 112.893 79.8199 112.893 79.6283V79.5478C112.893 79.0707 112.23 78.9522 112.065 79.3998L111.942 79.7311C111.888 79.8778 111.748 79.9752 111.592 79.9752C111.436 79.9752 111.296 79.8778 111.242 79.7311L111.119 79.3997C110.954 78.9522 110.291 79.0707 110.291 79.5478V79.6716C110.291 79.8393 110.155 79.9752 109.987 79.9752C109.82 79.9752 109.684 79.8393 109.684 79.6716V76.8875C109.684 76.6047 109.913 76.3755 110.196 76.3755C110.409 76.3755 110.601 76.5082 110.675 76.7085L110.774 76.9733C111.072 77.7705 112.199 77.7705 112.496 76.9733L112.595 76.7085C112.67 76.5082 112.861 76.3755 113.075 76.3755C113.358 76.3755 113.587 76.6047 113.587 76.8875V79.6283C113.587 79.8199 113.432 79.9752 113.24 79.9752Z" fill="#1FBEB9"/>
<path d="M114.651 79.9752C114.495 79.9752 114.369 79.849 114.369 79.6933V77.8718C114.369 77.0454 115.039 76.3755 115.865 76.3755C116.692 76.3755 117.362 77.0454 117.362 77.8718V79.6716C117.362 79.8393 117.226 79.9752 117.058 79.9752C116.89 79.9752 116.755 79.8393 116.755 79.6716V77.8067C116.755 77.3037 116.347 76.8959 115.844 76.8959C115.341 76.8959 114.933 77.3037 114.933 77.8067V79.6933C114.933 79.849 114.807 79.9752 114.651 79.9752Z" fill="#1FBEB9"/>
<path d="M119.703 80.1054C118.662 80.1054 118.012 79.4115 118.012 78.2405C118.012 77.0695 118.706 76.2888 119.66 76.2888C120.831 76.2888 121.265 77.243 121.265 78.2405C121.265 78.2884 121.226 78.3272 121.178 78.3272H118.619C118.595 78.3272 118.576 78.3467 118.576 78.3706C118.576 79.1513 119.009 79.585 119.703 79.585C120.155 79.585 120.41 79.4218 120.583 79.0107C120.634 78.8906 120.746 78.8043 120.877 78.8043C121.058 78.8043 121.2 78.9673 121.145 79.1402C120.94 79.7837 120.45 80.1054 119.703 80.1054ZM119.703 76.7659C119.471 76.7659 119.26 76.8397 119.09 76.9721C118.66 77.3067 119.124 77.8502 119.669 77.8502C120.238 77.8502 120.716 77.2546 120.248 76.9308C120.094 76.8244 119.91 76.7659 119.703 76.7659Z" fill="#1FBEB9"/>
<path d="M123.888 76.9394C123.54 76.9394 123.259 77.221 123.259 77.5683V79.7151C123.259 79.8828 123.123 80.0187 122.955 80.0187C122.788 80.0187 122.652 79.8828 122.652 79.7151V77.59C122.652 77.2307 122.36 76.9394 122.001 76.9394H121.611C121.467 76.9394 121.351 76.8229 121.351 76.6792C121.351 76.5355 121.467 76.419 121.611 76.419H124.256C124.4 76.419 124.517 76.5355 124.517 76.6792C124.517 76.8229 124.4 76.9394 124.256 76.9394H123.888Z" fill="#1FBEB9"/>
<path d="M126.426 80.1054C125.385 80.1054 124.734 79.4115 124.734 78.2405C124.734 77.0695 125.428 76.2888 126.382 76.2888C127.553 76.2888 127.987 77.243 127.987 78.2405C127.987 78.2884 127.948 78.3272 127.9 78.3272H125.385C125.361 78.3272 125.342 78.3467 125.342 78.3706C125.342 79.1513 125.775 79.585 126.469 79.585C126.923 79.585 127.179 79.4202 127.352 79.0046C127.4 78.8879 127.51 78.8043 127.636 78.8043C127.818 78.8043 127.956 78.9721 127.892 79.1422C127.651 79.7844 127.135 80.1054 126.426 80.1054ZM126.382 76.7659C126.15 76.7659 125.939 76.8397 125.769 76.9721C125.34 77.3067 125.803 77.8502 126.348 77.8502C126.917 77.8502 127.396 77.2546 126.927 76.9308C126.773 76.8244 126.59 76.7659 126.382 76.7659Z" fill="#1FBEB9"/>
<path d="M128.94 79.9752C128.773 79.9752 128.637 79.8393 128.637 79.6716V76.6791C128.637 76.5114 128.773 76.3755 128.94 76.3755C129.108 76.3755 129.244 76.5114 129.244 76.6791V77.0911C129.244 77.4863 129.564 77.8067 129.96 77.8067H130.306C130.702 77.8067 131.022 77.4863 131.022 77.0911V76.6791C131.022 76.5114 131.158 76.3755 131.326 76.3755C131.493 76.3755 131.629 76.5114 131.629 76.6791V79.6716C131.629 79.8393 131.493 79.9752 131.326 79.9752C131.158 79.9752 131.022 79.8393 131.022 79.6716V79.1512C131.022 78.6961 130.653 78.3272 130.198 78.3272H130.068C129.613 78.3272 129.244 78.6961 129.244 79.1512V79.6716C129.244 79.8393 129.108 79.9752 128.94 79.9752Z" fill="#1FBEB9"/>
<path d="M135.36 79.9752H134.297C133.303 79.9752 132.497 79.1694 132.497 78.1754V76.6791C132.497 76.5114 132.633 76.3755 132.801 76.3755C132.968 76.3755 133.104 76.5114 133.104 76.6791V78.5657C133.104 79.0567 133.502 79.4548 133.993 79.4548C134.484 79.4548 134.882 79.0567 134.882 78.5657V76.6791C134.882 76.5114 135.018 76.3755 135.186 76.3755C135.354 76.3755 135.49 76.5114 135.49 76.6791V79.2163C135.49 79.348 135.596 79.4548 135.728 79.4548C135.86 79.4548 135.967 79.5616 135.967 79.6933V80.821C135.967 80.9767 135.84 81.1029 135.685 81.1029C135.529 81.1029 135.403 80.9767 135.403 80.821V80.0186C135.403 79.9947 135.383 79.9752 135.36 79.9752Z" fill="#1FBEB9"/>
<path d="M136.908 79.9752C136.652 79.9752 136.444 79.7676 136.444 79.5116V76.6791C136.444 76.5114 136.58 76.3755 136.748 76.3755C136.916 76.3755 137.052 76.5114 137.052 76.6791V76.971C137.052 77.5863 137.871 77.7976 138.168 77.2589L138.524 76.615C138.606 76.4672 138.761 76.3755 138.93 76.3755C139.186 76.3755 139.394 76.5831 139.394 76.8392V79.6716C139.394 79.8393 139.258 79.9752 139.09 79.9752C138.922 79.9752 138.786 79.8393 138.786 79.6716V79.3797C138.786 78.7644 137.967 78.5532 137.669 79.0918L137.314 79.7357C137.232 79.8835 137.077 79.9752 136.908 79.9752Z" fill="#1FBEB9"/>
<path d="M140.796 79.9752C140.524 79.9752 140.305 79.7554 140.305 79.4843V76.6791C140.305 76.5114 140.441 76.3755 140.608 76.3755C140.776 76.3755 140.912 76.5114 140.912 76.6791V76.971C140.912 77.5863 141.731 77.7975 142.029 77.2589L142.384 76.615C142.466 76.4672 142.621 76.3755 142.79 76.3755C143.046 76.3755 143.254 76.5831 143.254 76.8391V79.6933C143.254 79.849 143.128 79.9752 142.972 79.9752C142.816 79.9752 142.69 79.849 142.69 79.6933V79.3797C142.69 78.7644 141.871 78.5531 141.573 79.0918L141.225 79.7216C141.139 79.8781 140.974 79.9752 140.796 79.9752ZM141.823 75.9851C141.328 75.9851 140.933 75.6843 140.815 75.2294C140.787 75.1243 140.875 75.031 140.983 75.031C141.069 75.031 141.141 75.0906 141.176 75.1685C141.291 75.4238 141.525 75.5514 141.823 75.5514C142.127 75.5514 142.331 75.3845 142.465 75.1385C142.499 75.0748 142.564 75.031 142.636 75.031C142.752 75.031 142.839 75.1399 142.799 75.2492C142.636 75.693 142.31 75.9851 141.823 75.9851Z" fill="#1FBEB9"/>
</svg>
